<?xml version="1.0" standalone="no"?>
<!DOCTYPE svg PUBLIC "-//W3C//DTD SVG 20010904//EN"
 "http://www.w3.org/TR/2001/REC-SVG-20010904/DTD/svg10.dtd">
<svg version="1.0" xmlns="http://www.w3.org/2000/svg"
 width="1280.000000pt" height="1280.000000pt" viewBox="0 0 1280.000000 1280.000000"
 preserveAspectRatio="xMidYMid meet">
<g transform="translate(0.000000,1280.000000) scale(0.100000,-0.100000)"
fill="#000000" stroke="none">
<path d="M9630 10100 c-195 -54 -638 -254 -820 -370 -46 -30 -233 -209 -652
-627 l-586 -586 -339 22 c-346 23 -403 28 -403 37 0 3 20 29 45 57 67 76 81
146 46 222 -24 51 -195 219 -243 240 -47 19 -99 19 -146 0 -23 -10 -120 -99
-268 -246 l-231 -230 -49 6 c-47 5 -133 11 -519 36 -99 7 -191 16 -204 21 -23
8 -23 8 17 52 22 24 47 58 56 74 18 35 21 117 6 158 -14 37 -194 219 -235 239
-41 19 -115 20 -158 1 -19 -8 -127 -108 -253 -236 -120 -122 -226 -226 -234
-230 -9 -5 -101 -2 -205 5 -866 63 -915 64 -997 27 -56 -26 -334 -304 -347
-347 -15 -54 19 -109 87 -138 20 -9 163 -51 317 -93 724 -196 1483 -417 1751
-508 202 -69 409 -159 679 -296 255 -130 429 -230 433 -250 1 -9 -463 -480
-1090 -1107 -1088 -1088 -1093 -1093 -1128 -1088 -19 3 -210 24 -425 46 -540
57 -592 52 -731 -69 -99 -85 -124 -121 -124 -179 0 -49 17 -87 52 -119 26 -24
261 -175 617 -394 l233 -144 -6 -46 c-25 -185 -16 -268 37 -347 44 -65 110
-107 192 -123 63 -12 106 -11 230 6 l50 6 207 -333 c347 -561 354 -569 448
-569 61 0 95 23 180 122 123 142 128 200 67 773 -25 231 -41 417 -36 425 4 8
496 503 1092 1099 733 733 1090 1082 1100 1078 33 -12 294 -506 420 -794 77
-177 132 -332 223 -633 86 -285 292 -1008 398 -1400 48 -173 94 -332 103 -353
24 -56 66 -87 116 -87 39 0 46 6 195 153 175 172 191 199 199 316 4 63 -43
831 -62 1020 l-6 54 235 236 c129 130 240 249 245 264 16 41 13 114 -5 152 -8
18 -62 78 -118 133 -88 86 -109 101 -149 110 -78 16 -134 -3 -203 -70 -32 -31
-44 -37 -50 -26 -5 7 -21 186 -35 398 l-27 385 233 235 c190 192 235 243 244
275 15 54 14 89 -4 133 -21 48 -189 219 -240 243 -79 37 -146 21 -228 -51 -26
-23 -51 -40 -54 -36 -4 3 -18 171 -32 372 l-25 365 595 597 c663 666 617 611
764 914 103 214 203 458 226 553 27 113 25 197 -6 263 -32 69 -128 165 -197
197 -65 31 -170 32 -268 5z"/>
</g>
</svg>
